G04 Layer_Color=32896*
%FSLAX24Y24*%
%MOIN*%
G70*
G01*
G75*
%ADD22C,0.0100*%
%ADD27C,0.0079*%
%ADD28C,0.0050*%
%ADD45C,0.0077*%
D22*
X14248Y2623D02*
Y3223D01*
X13948D01*
X13848Y3123D01*
Y2923D01*
X13948Y2823D01*
X14248D01*
X13648Y2623D02*
X13448D01*
X13548D01*
Y3223D01*
X13648Y3123D01*
X15850Y2630D02*
Y3230D01*
X15550D01*
X15450Y3130D01*
Y2930D01*
X15550Y2830D01*
X15850D01*
X14850Y2630D02*
X15250D01*
X14850Y3030D01*
Y3130D01*
X14950Y3230D01*
X15150D01*
X15250Y3130D01*
D27*
X13610Y3460D02*
X14610D01*
Y7460D01*
X13610Y3460D02*
Y7460D01*
X14610D01*
Y3457D02*
X15610D01*
Y7457D01*
X14610Y3457D02*
Y7457D01*
X15610D01*
D28*
X7350Y320D02*
Y720D01*
X7150D01*
X7083Y653D01*
Y520D01*
X7150Y453D01*
X7350D01*
X7217D02*
X7083Y320D01*
X6750D02*
X6883D01*
X6950Y387D01*
Y520D01*
X6883Y587D01*
X6750D01*
X6684Y520D01*
Y453D01*
X6950D01*
X6550Y587D02*
X6417Y320D01*
X6284Y587D01*
X5884Y320D02*
X6150D01*
X5884Y587D01*
Y653D01*
X5950Y720D01*
X6084D01*
X6150Y653D01*
X11993Y321D02*
Y721D01*
X11793D01*
X11726Y654D01*
Y521D01*
X11793Y455D01*
X11993D01*
X11593Y321D02*
Y588D01*
X11459Y721D01*
X11326Y588D01*
Y321D01*
Y521D01*
X11593D01*
X11193Y321D02*
Y721D01*
X10993D01*
X10926Y654D01*
Y521D01*
X10993Y455D01*
X11193D01*
X11059D02*
X10926Y321D01*
X10793Y721D02*
X10526D01*
X10660D01*
Y321D01*
X10326D02*
Y721D01*
X10193D02*
Y321D01*
X10393Y588D02*
X10193D01*
X10126D01*
X10393Y455D02*
X10126D01*
X9593Y654D02*
X9527Y721D01*
X9393D01*
X9327Y654D01*
Y588D01*
X9393Y521D01*
X9327Y455D01*
Y388D01*
X9393Y321D01*
X9527D01*
X9593Y388D01*
Y455D01*
X9527Y521D01*
X9593Y588D01*
Y654D01*
X9527Y521D02*
X9393D01*
X8927Y721D02*
X9060Y654D01*
X9193Y521D01*
Y388D01*
X9127Y321D01*
X8993D01*
X8927Y388D01*
Y455D01*
X8993Y521D01*
X9193D01*
X8794Y654D02*
X8727Y721D01*
X8594D01*
X8527Y654D01*
Y388D01*
X8594Y321D01*
X8727D01*
X8794Y388D01*
Y654D01*
X8127Y321D02*
X8394D01*
X8127Y588D01*
Y654D01*
X8194Y721D01*
X8327D01*
X8394Y654D01*
X7994D02*
X7927Y721D01*
X7794D01*
X7727Y654D01*
Y588D01*
X7794Y521D01*
X7727Y455D01*
Y388D01*
X7794Y321D01*
X7927D01*
X7994Y388D01*
Y455D01*
X7927Y521D01*
X7994Y588D01*
Y654D01*
X7927Y521D02*
X7794D01*
X16343Y4180D02*
X16610D01*
Y3980D01*
X16477Y4047D01*
X16410D01*
X16343Y3980D01*
Y3847D01*
X16410Y3780D01*
X16543D01*
X16610Y3847D01*
X16210Y4180D02*
Y3913D01*
X16077Y3780D01*
X15944Y3913D01*
Y4180D01*
X16683Y5083D02*
X16750Y5150D01*
X16883D01*
X16950Y5083D01*
Y4817D01*
X16883Y4750D01*
X16750D01*
X16683Y4817D01*
Y4950D01*
X16817D01*
X16550Y4750D02*
Y5150D01*
X16284Y4750D01*
Y5150D01*
X16150D02*
Y4750D01*
X15950D01*
X15884Y4817D01*
Y5083D01*
X15950Y5150D01*
X16150D01*
X16683Y7083D02*
X16750Y7150D01*
X16883D01*
X16950Y7083D01*
Y7017D01*
X16883Y6950D01*
X16750D01*
X16683Y6883D01*
Y6817D01*
X16750Y6750D01*
X16883D01*
X16950Y6817D01*
X16550Y7150D02*
Y6750D01*
X16350D01*
X16284Y6817D01*
Y7083D01*
X16350Y7150D01*
X16550D01*
X16150Y6750D02*
Y7017D01*
X16017Y7150D01*
X15884Y7017D01*
Y6750D01*
Y6950D01*
X16150D01*
X16683Y6063D02*
X16750Y6130D01*
X16883D01*
X16950Y6063D01*
Y5997D01*
X16883Y5930D01*
X16750D01*
X16683Y5863D01*
Y5797D01*
X16750Y5730D01*
X16883D01*
X16950Y5797D01*
X16284Y6063D02*
X16350Y6130D01*
X16483D01*
X16550Y6063D01*
Y5797D01*
X16483Y5730D01*
X16350D01*
X16284Y5797D01*
X16150Y6130D02*
Y5730D01*
X15884D01*
D45*
X10719Y1673D02*
X10758Y1712D01*
X10817Y1731D01*
X10895D01*
X10953Y1712D01*
X10993Y1673D01*
Y1634D01*
X10973Y1595D01*
X10953Y1575D01*
X10914Y1556D01*
X10797Y1517D01*
X10758Y1497D01*
X10739Y1477D01*
X10719Y1438D01*
Y1380D01*
X10758Y1341D01*
X10817Y1321D01*
X10895D01*
X10953Y1341D01*
X10993Y1380D01*
X10627Y1477D02*
X10393D01*
Y1517D01*
X10413Y1556D01*
X10432Y1575D01*
X10471Y1595D01*
X10530D01*
X10569Y1575D01*
X10608Y1536D01*
X10627Y1477D01*
Y1438D01*
X10608Y1380D01*
X10569Y1341D01*
X10530Y1321D01*
X10471D01*
X10432Y1341D01*
X10393Y1380D01*
X10305Y1477D02*
X10071D01*
Y1517D01*
X10090Y1556D01*
X10110Y1575D01*
X10149Y1595D01*
X10208D01*
X10247Y1575D01*
X10286Y1536D01*
X10305Y1477D01*
Y1438D01*
X10286Y1380D01*
X10247Y1341D01*
X10208Y1321D01*
X10149D01*
X10110Y1341D01*
X10071Y1380D01*
X9983Y1731D02*
Y1321D01*
Y1731D02*
X9827Y1321D01*
X9671Y1731D02*
X9827Y1321D01*
X9671Y1731D02*
Y1321D01*
X9554Y1477D02*
X9319D01*
Y1517D01*
X9339Y1556D01*
X9358Y1575D01*
X9397Y1595D01*
X9456D01*
X9495Y1575D01*
X9534Y1536D01*
X9554Y1477D01*
Y1438D01*
X9534Y1380D01*
X9495Y1341D01*
X9456Y1321D01*
X9397D01*
X9358Y1341D01*
X9319Y1380D01*
X8938Y1634D02*
X8958Y1673D01*
X8997Y1712D01*
X9036Y1731D01*
X9114D01*
X9153Y1712D01*
X9192Y1673D01*
X9212Y1634D01*
X9231Y1575D01*
Y1477D01*
X9212Y1419D01*
X9192Y1380D01*
X9153Y1341D01*
X9114Y1321D01*
X9036D01*
X8997Y1341D01*
X8958Y1380D01*
X8938Y1419D01*
X8823Y1731D02*
Y1321D01*
Y1731D02*
X8550Y1321D01*
Y1731D02*
Y1321D01*
X8144Y1634D02*
X8163Y1673D01*
X8202Y1712D01*
X8241Y1731D01*
X8320D01*
X8359Y1712D01*
X8398Y1673D01*
X8417Y1634D01*
X8437Y1575D01*
Y1477D01*
X8417Y1419D01*
X8398Y1380D01*
X8359Y1341D01*
X8320Y1321D01*
X8241D01*
X8202Y1341D01*
X8163Y1380D01*
X8144Y1419D01*
M02*
