G04 Layer_Color=2752767*
%FSLAX24Y24*%
%MOIN*%
G70*
G01*
G75*
%ADD56C,0.0020*%
%ADD57C,0.0027*%
D56*
X17243Y1889D02*
Y2049D01*
X17403D01*
Y1889D01*
X17243D01*
X2282D02*
Y2049D01*
X2442D01*
Y1889D01*
X2282D01*
X11250Y4170D02*
X11170Y4330D01*
X11330D01*
X11250Y4170D01*
X5200Y8470D02*
X5120Y8630D01*
X5280D01*
X5200Y8470D01*
X10320D02*
X10240Y8630D01*
X10400D01*
X10320Y8470D01*
X14614Y8006D02*
X14534Y8166D01*
X14694D01*
X14614Y8006D01*
X8230Y6900D02*
X8150Y7060D01*
X8310D01*
X8230Y6900D01*
X8200Y5420D02*
X8120Y5580D01*
X8280D01*
X8200Y5420D01*
Y3870D02*
X8120Y4030D01*
X8280D01*
X8200Y3870D01*
X11460Y5910D02*
X11380Y6070D01*
X11540D01*
X11460Y5910D01*
X18900Y7970D02*
X18820Y8130D01*
X18980D01*
X18900Y7970D01*
D57*
X14190Y6960D02*
G03*
X14190Y6960I-80J0D01*
G01*
Y5960D02*
G03*
X14190Y5960I-80J0D01*
G01*
Y4960D02*
G03*
X14190Y4960I-80J0D01*
G01*
Y3960D02*
G03*
X14190Y3960I-80J0D01*
G01*
X15190Y6957D02*
G03*
X15190Y6957I-80J0D01*
G01*
Y5957D02*
G03*
X15190Y5957I-80J0D01*
G01*
Y4957D02*
G03*
X15190Y4957I-80J0D01*
G01*
Y3957D02*
G03*
X15190Y3957I-80J0D01*
G01*
M02*
