G04 Layer_Color=32768*
%FSLAX24Y24*%
%MOIN*%
G70*
G01*
G75*
%ADD48C,0.0039*%
%ADD55C,0.0020*%
%ADD56C,0.0020*%
D48*
X9760Y3922D02*
Y5378D01*
X12240Y3922D02*
Y5378D01*
X9760D02*
X12240D01*
X9760Y3922D02*
X12240D01*
X10803Y4650D02*
X11197D01*
X11000Y4453D02*
Y4847D01*
X4400Y8346D02*
Y8739D01*
X4203Y8543D02*
X4597D01*
X9530Y8343D02*
Y8737D01*
X9333Y8540D02*
X9727D01*
X14250Y8353D02*
Y8747D01*
X14053Y8550D02*
X14447D01*
X18550Y8346D02*
Y8739D01*
X18353Y8543D02*
X18747D01*
X12653Y4300D02*
X13047D01*
X12850Y4103D02*
Y4497D01*
X11800Y6403D02*
Y6797D01*
X11603Y6600D02*
X11997D01*
X5900Y6103D02*
Y6497D01*
X5703Y6300D02*
X6097D01*
X5900Y4903D02*
Y5297D01*
X5703Y5100D02*
X6097D01*
X5850Y3753D02*
Y4147D01*
X5653Y3950D02*
X6047D01*
D55*
X3829Y8857D02*
X4971D01*
X3829Y8228D02*
X4971D01*
X3829D02*
Y8857D01*
X4971Y8228D02*
Y8857D01*
X8959Y8855D02*
X10101D01*
X8959Y8225D02*
X10101D01*
X8959D02*
Y8855D01*
X10101Y8225D02*
Y8855D01*
X13679Y8865D02*
X14821D01*
X13679Y8235D02*
X14821D01*
X13679D02*
Y8865D01*
X14821Y8235D02*
Y8865D01*
X17979Y8857D02*
X19121D01*
X17979Y8228D02*
X19121D01*
X17979D02*
Y8857D01*
X19121Y8228D02*
Y8857D01*
X12535Y3729D02*
Y4871D01*
X13165Y3729D02*
Y4871D01*
X12535Y3729D02*
X13165D01*
X12535Y4871D02*
X13165D01*
X11229Y6915D02*
X12371D01*
X11229Y6285D02*
X12371D01*
X11229D02*
Y6915D01*
X12371Y6285D02*
Y6915D01*
X5329Y6615D02*
X6471D01*
X5329Y5985D02*
X6471D01*
X5329D02*
Y6615D01*
X6471Y5985D02*
Y6615D01*
X5329Y5415D02*
X6471D01*
X5329Y4785D02*
X6471D01*
X5329D02*
Y5415D01*
X6471Y4785D02*
Y5415D01*
X5279Y4265D02*
X6421D01*
X5279Y3635D02*
X6421D01*
X5279D02*
Y4265D01*
X6421Y3635D02*
Y4265D01*
D56*
X11270Y5400D02*
X12030D01*
X11270D02*
Y5790D01*
X12030D01*
Y5400D02*
Y5790D01*
X9502Y5324D02*
Y5876D01*
X8498D02*
X9502D01*
X8498Y5324D02*
Y5876D01*
Y5324D02*
X9502D01*
Y4524D02*
Y5076D01*
X8498D02*
X9502D01*
X8498Y4524D02*
Y5076D01*
Y4524D02*
X9502D01*
Y3824D02*
Y4376D01*
X8498D02*
X9502D01*
X8498Y3824D02*
Y4376D01*
Y3824D02*
X9502D01*
X12574Y5148D02*
X13126D01*
Y6152D01*
X12574D02*
X13126D01*
X12574Y5148D02*
Y6152D01*
X12574Y7202D02*
X13126D01*
X12574Y6198D02*
Y7202D01*
Y6198D02*
X13126D01*
Y7202D01*
M02*
