G04 Layer_Color=16711935*
%FSLAX24Y24*%
%MOIN*%
G70*
G01*
G75*
%ADD10C,0.0080*%
D10*
X1620Y4537D02*
X1708Y4528D01*
X1537Y4567D02*
X1620Y4537D01*
X1463Y4613D02*
X1537Y4567D01*
X1400Y4676D02*
X1463Y4613D01*
X1353Y4750D02*
X1400Y4676D01*
X1324Y4834D02*
X1353Y4750D01*
X1314Y4921D02*
X1324Y4834D01*
X1314Y4921D02*
X1324Y5009D01*
X1353Y5092D01*
X1400Y5167D01*
X1463Y5229D01*
X1537Y5276D01*
X1620Y5305D01*
X1708Y5315D01*
X3204D01*
X3286Y5306D01*
X3364Y5281D01*
X3436Y5240D01*
X3497Y5185D01*
X3545Y5118D01*
X3579Y5043D01*
X3596Y4962D01*
Y4880D02*
Y4962D01*
X3579Y4800D02*
X3596Y4880D01*
X3545Y4724D02*
X3579Y4800D01*
X3497Y4658D02*
X3545Y4724D01*
X3436Y4603D02*
X3497Y4658D01*
X3364Y4562D02*
X3436Y4603D01*
X3286Y4536D02*
X3364Y4562D01*
X3204Y4528D02*
X3286Y4536D01*
X1708Y4528D02*
X3204D01*
X1620Y6112D02*
X1708Y6102D01*
X1537Y6141D02*
X1620Y6112D01*
X1463Y6188D02*
X1537Y6141D01*
X1400Y6251D02*
X1463Y6188D01*
X1353Y6325D02*
X1400Y6251D01*
X1324Y6408D02*
X1353Y6325D01*
X1314Y6496D02*
X1324Y6408D01*
X1314Y6496D02*
X1324Y6584D01*
X1353Y6667D01*
X1400Y6742D01*
X1463Y6804D01*
X1537Y6851D01*
X1620Y6880D01*
X1708Y6890D01*
X3204D01*
X3286Y6881D01*
X3364Y6856D01*
X3436Y6815D01*
X3497Y6760D01*
X3545Y6693D01*
X3579Y6618D01*
X3596Y6537D01*
Y6455D02*
Y6537D01*
X3579Y6374D02*
X3596Y6455D01*
X3545Y6299D02*
X3579Y6374D01*
X3497Y6233D02*
X3545Y6299D01*
X3436Y6178D02*
X3497Y6233D01*
X3364Y6136D02*
X3436Y6178D01*
X3286Y6111D02*
X3364Y6136D01*
X3204Y6102D02*
X3286Y6111D01*
X1708Y6102D02*
X3204D01*
X0Y0D02*
X19685D01*
Y9843D01*
X0D02*
X19685D01*
X0Y0D02*
Y9843D01*
Y0D02*
X19685D01*
Y9843D01*
X0D02*
X19685D01*
X0Y0D02*
Y9843D01*
M02*
