G04 Layer_Color=32896*
%FSLAX24Y24*%
%MOIN*%
G70*
G01*
G75*
%ADD46C,0.0060*%
%ADD47C,0.0040*%
%ADD48C,0.0039*%
%ADD49R,0.0236X0.0536*%
%ADD50R,0.0240X0.0536*%
%ADD51R,0.0118X0.0240*%
%ADD52R,0.0110X0.0240*%
%ADD53R,0.0138X0.0315*%
%ADD54R,0.0315X0.0138*%
D46*
X11550Y5510D02*
X11746D01*
X11550Y5688D02*
X11746D01*
X7140Y7160D02*
X7660D01*
Y6040D02*
Y7160D01*
X7140Y6040D02*
X7660D01*
X7140D02*
Y7160D01*
Y5660D02*
X7660D01*
Y4540D02*
Y5660D01*
X7140Y4540D02*
X7660D01*
X7140D02*
Y5660D01*
Y4110D02*
X7660D01*
Y2990D02*
Y4110D01*
X7140Y2990D02*
X7660D01*
X7140D02*
Y4110D01*
D47*
X16620Y8293D02*
X16987D01*
X16630Y8789D02*
X16987D01*
X12303D02*
X12660D01*
X12293Y8293D02*
X12660D01*
X7581D02*
X7948D01*
X7591Y8789D02*
X7948D01*
X2421D02*
X2778D01*
X2411Y8293D02*
X2778D01*
X8823Y5738D02*
X9177D01*
X8823Y4938D02*
X9177D01*
X8823Y4238D02*
X9177D01*
X12988Y5473D02*
Y5827D01*
X12712Y6523D02*
Y6877D01*
D48*
X8823Y5462D02*
X9177D01*
X8823Y4662D02*
X9177D01*
X8823Y3962D02*
X9177D01*
X12712Y5473D02*
Y5827D01*
X12988Y6523D02*
Y6877D01*
D49*
X16512Y8541D02*
D03*
X12185D02*
D03*
X7472D02*
D03*
X2303D02*
D03*
D50*
X17107Y8541D02*
D03*
X12780D02*
D03*
X8068D02*
D03*
X2898D02*
D03*
D51*
X11809Y5600D02*
D03*
D52*
X11485D02*
D03*
D53*
X8754Y5600D02*
D03*
X9246D02*
D03*
X8754Y4800D02*
D03*
X9246D02*
D03*
X8754Y4100D02*
D03*
X9246D02*
D03*
D54*
X12850Y5896D02*
D03*
Y5404D02*
D03*
X12850Y6454D02*
D03*
Y6946D02*
D03*
M02*
