G04 Layer_Color=128*
%FSLAX24Y24*%
%MOIN*%
G70*
G01*
G75*
%ADD56C,0.0020*%
D56*
X16614Y1969D02*
X18032D01*
X17323Y1260D02*
Y2677D01*
X1654Y1969D02*
X3071D01*
X2362Y1260D02*
Y2677D01*
X13933Y6960D02*
X14287D01*
X14110Y6783D02*
Y7137D01*
X13933Y5960D02*
X14287D01*
X14110Y5783D02*
Y6137D01*
X13933Y4960D02*
X14287D01*
X14110Y4783D02*
Y5137D01*
X13933Y3960D02*
X14287D01*
X14110Y3783D02*
Y4137D01*
X14933Y6957D02*
X15287D01*
X15110Y6780D02*
Y7134D01*
X14933Y5957D02*
X15287D01*
X15110Y5780D02*
Y6134D01*
X14933Y4957D02*
X15287D01*
X15110Y4780D02*
Y5134D01*
X14933Y3957D02*
X15287D01*
X15110Y3780D02*
Y4134D01*
X11175Y4250D02*
X11325D01*
X11250Y4175D02*
Y4325D01*
X5125Y8550D02*
X5275D01*
X5200Y8475D02*
Y8625D01*
X10245Y8550D02*
X10395D01*
X10320Y8475D02*
Y8625D01*
X14539Y8086D02*
X14689D01*
X14614Y8011D02*
Y8161D01*
X8155Y6980D02*
X8305D01*
X8230Y6905D02*
Y7055D01*
X8125Y5500D02*
X8275D01*
X8200Y5425D02*
Y5575D01*
X8125Y3950D02*
X8275D01*
X8200Y3875D02*
Y4025D01*
X11385Y5990D02*
X11535D01*
X11460Y5915D02*
Y6065D01*
X18825Y8050D02*
X18975D01*
X18900Y7975D02*
Y8125D01*
M02*
