G04 Layer_Color=8388736*
%FSLAX24Y24*%
%MOIN*%
G70*
G01*
G75*
%ADD32R,0.0769X0.0671*%
%ADD33O,0.0749X0.0198*%
%ADD34R,0.0415X0.0572*%
G04:AMPARAMS|DCode=35|XSize=30mil|YSize=32mil|CornerRadius=8.4mil|HoleSize=0mil|Usage=FLASHONLY|Rotation=180.000|XOffset=0mil|YOffset=0mil|HoleType=Round|Shape=RoundedRectangle|*
%AMROUNDEDRECTD35*
21,1,0.0300,0.0152,0,0,180.0*
21,1,0.0132,0.0320,0,0,180.0*
1,1,0.0168,-0.0066,0.0076*
1,1,0.0168,0.0066,0.0076*
1,1,0.0168,0.0066,-0.0076*
1,1,0.0168,-0.0066,-0.0076*
%
%ADD35ROUNDEDRECTD35*%
%ADD36R,0.0365X0.0247*%
%ADD37R,0.0440X0.0400*%
%ADD38R,0.0572X0.0415*%
G04:AMPARAMS|DCode=39|XSize=37.1mil|YSize=47.4mil|CornerRadius=9.8mil|HoleSize=0mil|Usage=FLASHONLY|Rotation=180.000|XOffset=0mil|YOffset=0mil|HoleType=Round|Shape=RoundedRectangle|*
%AMROUNDEDRECTD39*
21,1,0.0371,0.0277,0,0,180.0*
21,1,0.0175,0.0474,0,0,180.0*
1,1,0.0197,-0.0087,0.0139*
1,1,0.0197,0.0087,0.0139*
1,1,0.0197,0.0087,-0.0139*
1,1,0.0197,-0.0087,-0.0139*
%
%ADD39ROUNDEDRECTD39*%
G04:AMPARAMS|DCode=40|XSize=37.1mil|YSize=47.4mil|CornerRadius=9.8mil|HoleSize=0mil|Usage=FLASHONLY|Rotation=90.000|XOffset=0mil|YOffset=0mil|HoleType=Round|Shape=RoundedRectangle|*
%AMROUNDEDRECTD40*
21,1,0.0371,0.0277,0,0,90.0*
21,1,0.0175,0.0474,0,0,90.0*
1,1,0.0197,0.0139,0.0087*
1,1,0.0197,0.0139,-0.0087*
1,1,0.0197,-0.0139,-0.0087*
1,1,0.0197,-0.0139,0.0087*
%
%ADD40ROUNDEDRECTD40*%
G04:AMPARAMS|DCode=41|XSize=80mil|YSize=80mil|CornerRadius=40mil|HoleSize=0mil|Usage=FLASHONLY|Rotation=90.000|XOffset=0mil|YOffset=0mil|HoleType=Round|Shape=RoundedRectangle|*
%AMROUNDEDRECTD41*
21,1,0.0800,0.0000,0,0,90.0*
21,1,0.0000,0.0800,0,0,90.0*
1,1,0.0800,0.0000,0.0000*
1,1,0.0800,0.0000,0.0000*
1,1,0.0800,0.0000,0.0000*
1,1,0.0800,0.0000,0.0000*
%
%ADD41ROUNDEDRECTD41*%
%ADD42C,0.0080*%
%ADD43R,0.0671X0.0671*%
%ADD44C,0.0671*%
D32*
X16226Y8543D02*
D03*
X17388D02*
D03*
X13061D02*
D03*
X11900D02*
D03*
X7187D02*
D03*
X8348D02*
D03*
X3179D02*
D03*
X2018D02*
D03*
D33*
X10193Y5044D02*
D03*
Y4847D02*
D03*
Y4650D02*
D03*
Y4453D02*
D03*
Y4256D02*
D03*
X11807Y5044D02*
D03*
Y4847D02*
D03*
Y4650D02*
D03*
Y4453D02*
D03*
Y4256D02*
D03*
D34*
X4036Y8543D02*
D03*
X4764D02*
D03*
X9166Y8540D02*
D03*
X9894D02*
D03*
X13886Y8550D02*
D03*
X14614D02*
D03*
X18186Y8543D02*
D03*
X18914D02*
D03*
X11436Y6600D02*
D03*
X12164D02*
D03*
X5536Y6300D02*
D03*
X6264D02*
D03*
X5536Y5100D02*
D03*
X6264D02*
D03*
X5486Y3950D02*
D03*
X6214D02*
D03*
D35*
X11837Y5600D02*
D03*
X11460D02*
D03*
D36*
X9234Y1278D02*
D03*
Y1612D02*
D03*
X9805D02*
D03*
Y1278D02*
D03*
D37*
X6960Y6600D02*
D03*
X7794Y6980D02*
D03*
Y6226D02*
D03*
X6960Y5100D02*
D03*
X7794Y5480D02*
D03*
Y4726D02*
D03*
X6960Y3550D02*
D03*
X7794Y3930D02*
D03*
Y3176D02*
D03*
D38*
X12850Y3936D02*
D03*
Y4664D02*
D03*
D39*
X8732Y5600D02*
D03*
X9268D02*
D03*
X8732Y4800D02*
D03*
X9268D02*
D03*
X8732Y4100D02*
D03*
X9268D02*
D03*
D40*
X12850Y5918D02*
D03*
Y5382D02*
D03*
X12850Y6432D02*
D03*
Y6968D02*
D03*
D41*
X820Y8910D02*
D03*
X18990Y650D02*
D03*
D42*
X17323Y1969D02*
D03*
X2362D02*
D03*
D43*
X14110Y6960D02*
D03*
X15110Y6957D02*
D03*
D44*
X14110Y5960D02*
D03*
Y4960D02*
D03*
Y3960D02*
D03*
X15110Y5957D02*
D03*
Y4957D02*
D03*
Y3957D02*
D03*
M02*
